<?xml version="1.0" encoding="utf-8"?>
<!-- Generator: Adobe Illustrator 24.3.0, SVG Export Plug-In . SVG Version: 6.00 Build 0)  -->
<svg version="1.1" id="Laag_1" xmlns="http://www.w3.org/2000/svg" xmlns:xlink="http://www.w3.org/1999/xlink" x="0px" y="0px"
	 viewBox="0 0 40 40" style="enable-background:new 0 0 40 40;" xml:space="preserve">
<style type="text/css">
	.st0{fill:#FFFFFF;}
</style>
<path class="st0" d="M35.3,17.4c0-0.1,0-0.1,0-0.2c0-2.1-1.7-3.8-3.8-3.8c-0.6,0-1.3,0.2-1.8,0.5c-0.4-2-2.2-3.4-4.4-3.4l-0.2,0
	c-1.9,0.1-3.4,1.3-4,3c-1.1-1.1-2.6-1.8-4.3-1.7c-2.7,0.1-4.8,2.1-5.1,4.6c-0.5-0.2-1-0.2-1.5-0.2c-2.6,0-4.6,2.1-4.6,4.6
	c0,0,0,0.1,0,0.1c-1.3,0.4-3.1,1.1-3.1,3.7c0,2.1,1.9,3.8,4.1,3.8h0.2c1.4-0.1,7.3,0,7.3,0v-0.1c0,0,0,0,0,0l0,0.1v-0.1
	c0.8,0.1,2.6,0.1,6.8,0.1c0,0,3.2,0,5.5,0c0.9,0,1.6,0,2,0c2.1-0.1,4-2.1,3.9-4.4l0,0c0.1,0,0.3,0,0.4,0c0.7,0,1.3,0,1.7,0
	c0.9,0,1.7-0.5,2.3-1.2c0.6-0.7,0.9-1.6,0.8-2.5C37.5,19,36.6,17.9,35.3,17.4z M31.2,24c0.1,1.5-1.1,3.2-2.8,3.3
	c-1.5,0.1-7.4,0-7.4,0c-2.6,0-6.6,0-6.8,0l0,0.3l0-0.3c0,0-2.7,0-4.9,0c-1.1,0-2,0-2.4,0H6.7c-1.7,0-3-1.2-3-2.7
	c0-1.8,1-2.3,2.7-2.8l0.4-0.2l0-0.4l0-0.2c0-0.1,0-0.2,0-0.3c0-1.9,1.6-3.5,3.5-3.5c0.6,0,1.1,0.1,1.7,0.5l0.9,0.5l0-1
	c0-2.3,1.8-4.2,4.1-4.3l0.2,0c1.1,0,2.1,0.4,2.9,1.1c0.4,0.4,0.8,0.8,1.1,1.4c0.2,0.5,0.4,1,0.4,1.6c0,0.1,0,0.2,0,0.4l0,1.5l1-1
	c0.7-0.7,1.5-1,2.5-1c1.9,0,3.5,1.6,3.5,3.5c0,0.2,0,0.5-0.1,0.7l-0.1,0.6l0.6,0.1c0.9,0.2,1.7,0.7,2.1,1.4
	C31,23.2,31.2,23.6,31.2,24L31.2,24z M35.9,22c-0.4,0.5-1,0.8-1.5,0.8c-0.4,0-1.3,0-2.2,0c-0.4-1.1-1.4-2-2.6-2.4c0-0.1,0-0.2,0-0.4
	c0-2.5-2.1-4.6-4.6-4.6c-0.9,0-1.7,0.2-2.4,0.7c-0.1-0.4-0.2-0.8-0.4-1.2c0-0.1-0.1-0.2-0.1-0.3c0.1-1.7,1.4-3,3.2-3.1h0.2
	c1.8,0,3.2,1.4,3.3,3.1c0,0.1,0,0.1,0,0.3l-0.1,1.5l1-1c0.5-0.5,1.2-0.8,1.9-0.8c1.5,0,2.7,1.2,2.7,2.7c0,0.2,0,0.4,0,0.5L34,18.3
	l0.6,0.1c1,0.2,1.8,1,1.8,1.9C36.5,20.9,36.3,21.5,35.9,22z"/>
</svg>
