<?xml version="1.0" encoding="utf-8"?>
<!-- Generator: Adobe Illustrator 24.3.0, SVG Export Plug-In . SVG Version: 6.00 Build 0)  -->
<svg version="1.1" id="Laag_1" xmlns="http://www.w3.org/2000/svg" xmlns:xlink="http://www.w3.org/1999/xlink" x="0px" y="0px"
	 viewBox="0 0 40 40" style="enable-background:new 0 0 40 40;" xml:space="preserve">
<style type="text/css">
	.st0{fill:#FFFFFF;}
</style>
<g>
	<g>
		<path class="st0" d="M32.3,12.1c0-0.1,0-0.3,0-0.4c0-2.6-2.1-4.7-4.7-4.7c-0.9,0-1.7,0.2-2.5,0.7C24.7,5,22.3,3,19.5,3.2
			c-2.7,0.1-4.9,2.1-5.2,4.7c-0.5-0.2-1-0.3-1.5-0.3c-2.6,0-4.7,2.1-4.7,4.7c0,0.1,0,0.1,0,0.2c-1.3,0.4-3.2,1.1-3.2,3.8
			c0,2,1.7,3.7,3.9,3.8L9.5,19c-0.1,0-0.2,0-0.2,0H9.1C7.4,19,6,17.8,6,16.2c0-1.8,1-2.4,2.8-2.8l0.4-0.2l0-0.4l0-0.2
			c0-0.1,0-0.2,0-0.3c0-2,1.6-3.6,3.6-3.6c0.6,0,1.2,0.2,1.7,0.5l0.8,0.5l0-0.9c0-2.3,1.8-4.3,4.2-4.4l0.2,0c2.4,0,4.3,1.8,4.4,4.1
			c0,0.1,0,0.2,0,0.4l0,1.4l1-1c0.7-0.7,1.6-1.1,2.5-1.1c2,0,3.6,1.6,3.6,3.6c0,0.2,0,0.5-0.1,0.7L31,13l0.5,0.1
			c1.4,0.2,2.4,1.3,2.5,2.6s-0.8,2.8-2.2,3.2l0.4,1c1.7-0.6,3-2.4,2.9-4.3C35.1,14,33.9,12.6,32.3,12.1z"/>
	</g>
	<g>
		<path class="st0" d="M12.9,23.1L12.9,23.1c-1.4-1.9-1.3-5.1-1.4-4c-0.2,2.7-1.2,4-1.2,4l0,0c-0.1,0.2-0.1,0.4-0.1,0.5
			c0,0.7,0.6,1.3,1.4,1.3s1.4-0.6,1.4-1.3C13.1,23.5,13,23.3,12.9,23.1z"/>
	</g>
	<g>
		<path class="st0" d="M18.5,19.5L18.5,19.5c-1.2-1.6-1.1-4.4-1.2-3.5c-0.1,2.3-1.1,3.5-1.1,3.5l0,0c-0.1,0.1-0.1,0.3-0.1,0.5
			c0,0.6,0.5,1.1,1.2,1.1s1.2-0.5,1.2-1.1C18.6,19.8,18.5,19.7,18.5,19.5z"/>
	</g>
	<g>
		<path class="st0" d="M25.2,24.1L25.2,24.1c-0.9-1.2-0.8-3.3-0.9-2.6c-0.1,1.7-0.8,2.6-0.8,2.6l0,0c-0.1,0.1-0.1,0.2-0.1,0.4
			c0,0.5,0.4,0.8,0.9,0.8s0.9-0.4,0.9-0.8C25.3,24.4,25.3,24.2,25.2,24.1z"/>
	</g>
	<g>
		<path class="st0" d="M28.5,18.6L28.5,18.6c-1-1.4-1-3.8-1-3c-0.1,2-0.9,3-0.9,3l0,0c-0.1,0.1-0.1,0.3-0.1,0.4c0,0.5,0.5,1,1.1,1
			s1.1-0.4,1.1-1C28.6,18.9,28.6,18.8,28.5,18.6z"/>
	</g>
	<g>
		<polygon class="st0" points="15.6,37.8 15.8,37.5 21.9,28.1 16,28.1 21,20 21.5,20 18.1,27 24.4,27.1 		"/>
	</g>
</g>
</svg>
