<?xml version="1.0" encoding="utf-8"?>
<!-- Generator: Adobe Illustrator 24.3.0, SVG Export Plug-In . SVG Version: 6.00 Build 0)  -->
<svg version="1.1" id="Laag_1" xmlns="http://www.w3.org/2000/svg" xmlns:xlink="http://www.w3.org/1999/xlink" x="0px" y="0px"
	 viewBox="0 0 40 40" style="enable-background:new 0 0 40 40;" xml:space="preserve">
<style type="text/css">
	.st0{fill:#FFFFFF;}
</style>
<g>
	<g>
		<path class="st0" d="M26.7,28.1c0.1,0,0.2,0.1,0.2,0.3l0,0c0,0.2-0.1,0.3-0.2,0.3h-13c-0.1,0-0.2-0.1-0.2-0.3l0,0
			c0-0.2,0.1-0.3,0.2-0.3H26.7z"/>
	</g>
	<g>
		<path class="st0" d="M28.7,25c0.1,0,0.2,0.1,0.2,0.3l0,0c0,0.2-0.1,0.3-0.2,0.3h-13c-0.1,0-0.2-0.1-0.2-0.3l0,0
			c0-0.2,0.1-0.3,0.2-0.3H28.7z"/>
	</g>
	<g>
		<path class="st0" d="M25.9,20.4c0.1,0,0.2,0.1,0.2,0.3l0,0c0,0.2-0.1,0.3-0.2,0.3h-13c-0.1,0-0.2-0.1-0.2-0.3l0,0
			c0-0.2,0.1-0.3,0.2-0.3H25.9z"/>
	</g>
	<g>
		<path class="st0" d="M30,16.7c0.1,0,0.2,0.1,0.2,0.3l0,0c0,0.2-0.1,0.3-0.2,0.3H17c-0.1,0-0.2-0.1-0.2-0.3l0,0
			c0-0.2,0.1-0.3,0.2-0.3H30z"/>
	</g>
	<g>
		<path class="st0" d="M25.9,13.3c0.1,0,0.2,0.1,0.2,0.3l0,0c0,0.2-0.1,0.3-0.2,0.3h-13c-0.1,0-0.2-0.1-0.2-0.3l0,0
			c0-0.2,0.1-0.3,0.2-0.3H25.9z"/>
	</g>
</g>
</svg>
