<?xml version="1.0" encoding="utf-8"?>
<!-- Generator: Adobe Illustrator 24.3.0, SVG Export Plug-In . SVG Version: 6.00 Build 0)  -->
<svg version="1.1" id="Laag_1" xmlns="http://www.w3.org/2000/svg" xmlns:xlink="http://www.w3.org/1999/xlink" x="0px" y="0px"
	 viewBox="0 0 40 40" style="enable-background:new 0 0 40 40;" xml:space="preserve">
<style type="text/css">
	.st0{fill:#FFFFFF;}
</style>
<g>
	<g>
		<path class="st0" d="M32.3,17.4c0-0.1,0-0.3,0-0.4c0-2.6-2.1-4.7-4.7-4.7c-0.9,0-1.7,0.2-2.5,0.7c-0.5-2.7-2.9-4.7-5.7-4.5
			c-2.7,0.1-4.9,2.1-5.2,4.7c-0.5-0.2-1-0.3-1.5-0.3c-2.6,0-4.7,2.1-4.7,4.7c0,0.1,0,0.1,0,0.2c-1.3,0.4-3.2,1.1-3.2,3.8
			c0,2,1.7,3.7,3.9,3.8l0.7-1.1c-0.1,0-0.2,0-0.2,0H9.1c-1.7,0-3.1-1.2-3.1-2.7c0-1.8,1-2.4,2.8-2.8l0.4-0.2l0-0.4l0-0.2
			c0-0.1,0-0.2,0-0.3c0-2,1.6-3.6,3.6-3.6c0.6,0,1.2,0.2,1.7,0.5l0.8,0.5l0-0.9c0-2.3,1.8-4.3,4.2-4.4l0.2,0c2.4,0,4.3,1.8,4.4,4.1
			c0,0.1,0,0.2,0,0.4l0,1.4l1-1c0.7-0.7,1.6-1.1,2.5-1.1c2,0,3.6,1.6,3.6,3.6c0,0.2,0,0.5-0.1,0.7L31,18.3l0.5,0.1
			c1.4,0.2,2.4,1.3,2.5,2.6s-0.8,2.8-2.2,3.2l0.4,1c1.7-0.6,3-2.4,2.9-4.3C35.1,19.3,33.9,17.9,32.3,17.4z"/>
	</g>
	<g>
		<path class="st0" d="M14.6,29.6L14.6,29.6c-1.8-2.4-1.7-6.6-1.8-5.2c-0.2,3.5-1.6,5.2-1.6,5.2l0,0C11.1,29.8,11,30,11,30.3
			c0,0.9,0.8,1.7,1.9,1.7s1.9-0.8,1.9-1.7C14.8,30,14.7,29.8,14.6,29.6z"/>
	</g>
	<g>
		<path class="st0" d="M20.3,26.3L20.3,26.3c-1.6-2.1-1.5-5.7-1.5-4.6c-0.2,3-1.4,4.6-1.4,4.6l0,0c-0.1,0.2-0.2,0.4-0.2,0.6
			c0,0.8,0.7,1.5,1.6,1.5s1.6-0.6,1.6-1.5C20.5,26.7,20.4,26.5,20.3,26.3z"/>
	</g>
	<g>
		<path class="st0" d="M24.8,30.5L24.8,30.5c-1.4-1.9-1.3-5.2-1.4-4.2c-0.2,2.8-1.3,4.2-1.3,4.2l0,0c-0.1,0.2-0.1,0.4-0.1,0.6
			c0,0.7,0.7,1.3,1.5,1.3c0.8,0,1.5-0.6,1.5-1.3C24.9,30.9,24.9,30.7,24.8,30.5z"/>
	</g>
	<g>
		<path class="st0" d="M26.5,24.9L26.5,24.9c-0.9-1.2-0.9-3.3-0.9-2.6c-0.1,1.8-0.8,2.6-0.8,2.6l0,0c-0.1,0.1-0.1,0.2-0.1,0.4
			c0,0.5,0.4,0.8,0.9,0.8s0.9-0.4,0.9-0.8C26.6,25.1,26.6,25,26.5,24.9z"/>
	</g>
</g>
</svg>
