<?xml version="1.0" encoding="utf-8"?>
<!-- Generator: Adobe Illustrator 24.3.0, SVG Export Plug-In . SVG Version: 6.00 Build 0)  -->
<svg version="1.1" id="Laag_1" xmlns="http://www.w3.org/2000/svg" xmlns:xlink="http://www.w3.org/1999/xlink" x="0px" y="0px"
	 viewBox="0 0 40 40" style="enable-background:new 0 0 40 40;" xml:space="preserve">
<style type="text/css">
	.st0{fill:#FFFFFF;}
</style>
<g>
	<path class="st0" d="M21.8,33c-1.4-1.9-1.4-5.2-1.4-4.2c-0.2,2.8-1.3,4.2-1.3,4.2c-0.1,0.2-0.1,0.4-0.1,0.6c0,0.7,0.7,1.3,1.5,1.3
		s1.5-0.6,1.5-1.3C22,33.4,21.9,33.2,21.8,33L21.8,33z"/>
	<path class="st0" d="M29.4,8.4c-2.4,0-4.3,1.9-4.3,4.3c0,0.8,0.2,1.6,0.6,2.2c-0.3-0.1-0.6-0.1-1-0.1c-0.9,0-1.7,0.2-2.5,0.7
		c-0.5-2.7-2.9-4.6-5.7-4.5c-2.7,0.1-4.9,2.1-5.2,4.7c-0.5-0.2-1-0.3-1.5-0.3c-2.6,0-4.7,2.1-4.7,4.7c0,0.1,0,0.1,0,0.2
		c-1.3,0.4-3.2,1.1-3.2,3.8c0,2,1.7,3.7,3.9,3.8l0.7-1.1c-0.1,0-0.2,0-0.2,0H6.1c-1.7,0-3.1-1.2-3.1-2.7c0-1.8,1-2.4,2.8-2.8
		l0.4-0.2l0-0.4l0-0.2c0-0.1,0-0.2,0-0.3c0-2,1.6-3.6,3.6-3.6c0.6,0,1.2,0.2,1.7,0.5l0.8,0.5l0-0.9c0-2.3,1.8-4.3,4.2-4.4l0.2,0
		c2.4,0,4.3,1.8,4.4,4.1c0,0.1,0,0.2,0,0.4l0,1.4l1-1c0.7-0.7,1.6-1.1,2.5-1.1c2,0,3.6,1.6,3.6,3.6c0,0.2,0,0.5-0.1,0.7l-0.1,0.5
		l0.5,0.1c1.4,0.2,2.4,1.3,2.5,2.6c0.1,1.3-0.8,2.8-2.2,3.2l0.4,1c1.7-0.6,3-2.4,2.9-4.3c-0.1-1.6-1.2-3-2.9-3.5c0-0.1,0-0.3,0-0.4
		c0-0.9-0.3-1.8-0.8-2.5c0.2,0,0.5,0.1,0.8,0.1c2.4,0,4.3-1.9,4.3-4.3C33.7,10.3,31.8,8.4,29.4,8.4z M29.4,16.3
		c-2,0-3.6-1.6-3.6-3.6s1.6-3.6,3.6-3.6s3.6,1.6,3.6,3.6C33,14.7,31.4,16.3,29.4,16.3z"/>
	<path class="st0" d="M25.6,9.3c0.1,0.1,0.3,0.1,0.4,0c0.1-0.1,0.1-0.3,0-0.4l-2.2-2.5c-0.1-0.1-0.3-0.1-0.4,0
		c-0.1,0.1-0.1,0.3,0,0.4L25.6,9.3z"/>
	<path class="st0" d="M29.4,7.9c0.2,0,0.3-0.1,0.3-0.3l0-3.4c0-0.2-0.1-0.3-0.3-0.3c-0.2,0-0.3,0.1-0.3,0.3l0,3.4
		C29.1,7.7,29.2,7.9,29.4,7.9z"/>
	<path class="st0" d="M20.8,12.2l3.4,0.3c0.2,0,0.3-0.1,0.3-0.3c0-0.2-0.1-0.3-0.3-0.3l-3.4-0.3c-0.2,0-0.3,0.1-0.3,0.3
		C20.5,12.1,20.7,12.2,20.8,12.2z"/>
	<path class="st0" d="M37.1,16.8l-3-1.6c-0.2-0.1-0.3,0-0.4,0.1c-0.1,0.1,0,0.3,0.1,0.4l3,1.6c0.2,0.1,0.3,0,0.4-0.1
		C37.3,17,37.3,16.9,37.1,16.8z"/>
	<path class="st0" d="M37.8,11.1l-3.4,0.4c-0.2,0-0.3,0.2-0.3,0.3s0.2,0.3,0.3,0.3l3.4-0.4c0.2,0,0.3-0.2,0.3-0.3
		C38.1,11.2,38,11.1,37.8,11.1z"/>
	<path class="st0" d="M30.8,17.1c-0.2,0-0.2,0.2-0.2,0.4l1.1,3.2c0,0.2,0.2,0.2,0.4,0.2c0.2-0.1,0.2-0.2,0.2-0.4l-1.1-3.2
		C31.1,17.2,31,17.1,30.8,17.1z"/>
	<path class="st0" d="M32.9,9L35,6.4c0.1-0.1,0.1-0.3,0-0.4S34.6,5.9,34.5,6l-2.1,2.7c-0.1,0.1-0.1,0.3,0,0.4
		C32.6,9.2,32.8,9.2,32.9,9z"/>
	<path class="st0" d="M11.7,32.1c-1.8-2.4-1.7-6.6-1.8-5.2c-0.2,3.5-1.6,5.2-1.6,5.2c-0.1,0.2-0.2,0.5-0.2,0.7
		c0,0.9,0.8,1.7,1.9,1.7s1.9-0.8,1.9-1.7C11.9,32.5,11.8,32.3,11.7,32.1L11.7,32.1z"/>
	<path class="st0" d="M17.4,28.8c-1.6-2.1-1.5-5.7-1.5-4.6c-0.2,3-1.4,4.6-1.4,4.6c-0.1,0.2-0.2,0.4-0.2,0.6c0,0.8,0.7,1.5,1.6,1.5
		s1.6-0.6,1.6-1.5C17.6,29.2,17.5,29,17.4,28.8L17.4,28.8z"/>
	<path class="st0" d="M22.7,24.7c-0.1,1.8-0.8,2.6-0.8,2.6c-0.1,0.1-0.1,0.2-0.1,0.4c0,0.5,0.4,0.8,0.9,0.8s0.9-0.4,0.9-0.8
		c0-0.1,0-0.2-0.1-0.4C22.7,26.1,22.8,24,22.7,24.7z"/>
</g>
</svg>
