<?xml version="1.0" encoding="utf-8"?>
<!-- Generator: Adobe Illustrator 24.3.0, SVG Export Plug-In . SVG Version: 6.00 Build 0)  -->
<svg version="1.1" id="Laag_1" xmlns="http://www.w3.org/2000/svg" xmlns:xlink="http://www.w3.org/1999/xlink" x="0px" y="0px"
	 viewBox="0 0 40 40" style="enable-background:new 0 0 40 40;" xml:space="preserve">
<style type="text/css">
	.st0{fill:#FFFFFF;}
</style>
<g>
	<g>
		<path class="st0" d="M32.3,15c0-0.1,0-0.3,0-0.4c0-2.6-2.1-4.7-4.7-4.7c-0.9,0-1.7,0.2-2.5,0.7C24.7,8,22.3,6,19.4,6.2
			c-2.7,0.1-4.9,2.1-5.2,4.7c-0.5-0.2-1-0.3-1.5-0.3c-2.6,0-4.7,2.1-4.7,4.7c0,0.1,0,0.1,0,0.2c-1.3,0.4-3.2,1.1-3.2,3.8
			c0,2,1.7,3.7,3.9,3.8l0.7-1.1c-0.1,0-0.2,0-0.2,0H9.1c-1.7,0-3.1-1.2-3.1-2.7c0-1.8,1-2.4,2.8-2.8l0.4-0.2l0-0.4l0-0.2
			c0-0.1,0-0.2,0-0.3c0-2,1.6-3.6,3.6-3.6c0.6,0,1.2,0.2,1.7,0.5l0.8,0.5l0-0.9c0-2.3,1.8-4.3,4.2-4.4l0.2,0c2.4,0,4.3,1.8,4.4,4.1
			c0,0.1,0,0.2,0,0.4l0,1.4l1-1c0.7-0.7,1.6-1.1,2.5-1.1c2,0,3.6,1.6,3.6,3.6c0,0.2,0,0.5-0.1,0.7L31,15.9l0.5,0.1
			c1.4,0.2,2.4,1.3,2.5,2.6s-0.8,2.8-2.2,3.2l0.4,1c1.7-0.6,3-2.4,2.9-4.3C35.1,16.9,33.9,15.5,32.3,15z"/>
	</g>
	<g>
		<path class="st0" d="M11,25.1h0.3v-0.3H11V25.1z M12.2,25.6l0.2,0.2l0.2-0.2l-0.2-0.2L12.2,25.6z M10.6,23.5l-0.2,0.2l0.2,0.2
			l0.2-0.2L10.6,23.5z M13.6,25.1h0.3v-0.3h-0.3V25.1z M11.3,22.2H11v0.3h0.3V22.2z M13.9,22.2h-0.3v0.3h0.3V22.2z M12.7,21.8
			l-0.2-0.2l-0.2,0.2l0.2,0.2L12.7,21.8z M14.2,24.2L14,23.7l0.2-0.5l-0.4,0.4h-0.6l0.2-0.3l-0.4-0.1l0.4-0.4H14l-0.5-0.2l-0.2-0.5
			v0.5L13,23.1l-0.1-0.4l-0.4,0.2v-0.6l0.4-0.4l-0.4,0.2L12,21.9l0.4,0.4v0.6L12,22.7L12,23.1l-0.4-0.4v-0.5l-0.2,0.5l-0.5,0.2h0.5
			l0.4,0.4l-0.4,0.1l0.3,0.3h-0.6l-0.4-0.4l0.2,0.5l-0.2,0.5l0.4-0.4h0.6l-0.3,0.4l0.4,0.1l-0.4,0.4h-0.5l0.5,0.2l0.2,0.5l0-0.5
			l0.4-0.4l0.1,0.4l0.4-0.3v0.6L12,25.5l0.5-0.2l0.4,0.2l-0.4-0.4v-0.6l0.4,0.2l0.1-0.4l0.4,0.4l0,0.5l0.1-0.5l0.5-0.2h-0.5
			l-0.4-0.4l0.4-0.1l-0.2-0.3h0.6L14.2,24.2z M12,23.4l0.3,0.2h-0.4L12,23.4z M12,24l-0.1-0.3h0.4L12,24z M12.4,24.2l-0.2-0.1
			l0.2-0.3V24.2z M12.4,23.5l-0.2-0.2l0.2-0.1V23.5z M12.9,23.4l0.1,0.2h-0.4L12.9,23.4z M12.6,23.1l0.2,0.1l-0.2,0.2V23.1z
			 M12.6,24.2v-0.4l0.2,0.2L12.6,24.2z M12.9,24l-0.2-0.3h0.4L12.9,24z M14.3,23.5l-0.2,0.2l0.2,0.2l0.2-0.2L14.3,23.5z"/>
	</g>
	<g>
		<path class="st0" d="M23.6,23.5h0.4v-0.4h-0.4V23.5z M25.2,24l0.3,0.3l0.3-0.3l-0.3-0.3L25.2,24z M23.1,21.3l-0.3,0.3l0.3,0.3
			l0.3-0.3L23.1,21.3z M27,23.5h0.4v-0.4H27V23.5z M24,19.7h-0.4v0.4H24V19.7z M27.4,19.7H27v0.4h0.4V19.7z M25.8,19.1l-0.3-0.3
			l-0.3,0.3l0.3,0.3L25.8,19.1z M27.8,22.2l-0.3-0.6l0.3-0.6l-0.5,0.5h-0.8l0.3-0.4L26.3,21l0.5-0.6h0.7l-0.6-0.2l-0.2-0.6v0.7
			l-0.5,0.6l-0.1-0.5l-0.5,0.3v-0.8l0.5-0.5l-0.6,0.3l-0.6-0.3l0.5,0.5v0.8L25,20.3l-0.1,0.5l-0.5-0.6v-0.7l-0.2,0.6l-0.6,0.2h0.7
			l0.5,0.5l-0.6,0.1l0.4,0.4h-0.8L23.3,21l0.2,0.6l-0.2,0.6l0.5-0.5h0.8l-0.4,0.5l0.6,0.1l-0.5,0.5h-0.7l0.6,0.2l0.2,0.6l0-0.7
			l0.5-0.5l0.1,0.5l0.5-0.3v0.8l-0.5,0.5l0.6-0.3l0.6,0.3l-0.5-0.5v-0.8l0.5,0.3l0.1-0.5l0.5,0.5l0,0.7l0.2-0.6l0.6-0.2h-0.7
			l-0.5-0.5l0.5-0.2l-0.3-0.4h0.8L27.8,22.2z M24.9,21.2l0.3,0.3h-0.5L24.9,21.2z M25,22l-0.1-0.3h0.5L25,22z M25.4,22.3l-0.3-0.1
			l0.3-0.3V22.3z M25.4,21.3L25.1,21l0.3-0.1V21.3z M26.1,21.2l0.1,0.3h-0.5L26.1,21.2z M25.7,20.9L26,21l-0.3,0.3V20.9z M25.7,22.3
			v-0.5l0.3,0.3L25.7,22.3z M26.1,22l-0.3-0.3h0.5L26.1,22z M27.9,21.3l-0.3,0.3l0.3,0.3l0.3-0.3L27.9,21.3z"/>
	</g>
	<g>
		<path class="st0" d="M13.9,34h0.4v-0.4h-0.4V34z M15.5,34.5l0.3,0.3l0.3-0.3l-0.3-0.3L15.5,34.5z M13.3,31.8L13,32.1l0.3,0.3
			l0.3-0.3L13.3,31.8z M17.2,34h0.4v-0.4h-0.4V34z M14.2,30.2h-0.4v0.4h0.4V30.2z M17.7,30.2h-0.4v0.4h0.4V30.2z M16,29.6l-0.3-0.3
			l-0.3,0.3l0.3,0.3L16,29.6z M18,32.7l-0.3-0.6l0.3-0.6L17.6,32h-0.8l0.3-0.4l-0.5-0.1l0.5-0.6h0.7l-0.6-0.2l-0.2-0.6v0.7l-0.5,0.6
			l-0.1-0.5l-0.4,0.3v-0.8l0.5-0.5l-0.6,0.3l-0.6-0.3l0.5,0.5v0.8l-0.4-0.3l-0.1,0.5l-0.6-0.6v-0.7l-0.2,0.6l-0.6,0.2h0.7l0.6,0.5
			l-0.6,0.1l0.4,0.4H14l-0.5-0.5l0.2,0.6l-0.2,0.6l0.5-0.5h0.8l-0.4,0.5l0.6,0.1l-0.6,0.5h-0.7l0.6,0.2l0.2,0.6l0-0.7l0.5-0.5
			l0.1,0.5l0.4-0.3v0.8l-0.5,0.5l0.6-0.3l0.6,0.3l-0.5-0.5v-0.8l0.5,0.3l0.1-0.5l0.5,0.5l0,0.7l0.2-0.6l0.6-0.2h-0.7l-0.5-0.5
			l0.5-0.2l-0.3-0.4h0.8L18,32.7z M15.2,31.7l0.3,0.3H15L15.2,31.7z M15.2,32.5L15,32.2h0.4L15.2,32.5z M15.6,32.8l-0.3-0.1l0.3-0.3
			V32.8z M15.6,31.8l-0.3-0.3l0.3-0.1V31.8z M16.3,31.7l0.1,0.3H16L16.3,31.7z M15.9,31.4l0.3,0.1l-0.3,0.3
			C15.9,31.8,15.9,31.4,15.9,31.4z M15.9,32.8v-0.5l0.3,0.3L15.9,32.8z M16.3,32.5L16,32.2h0.5L16.3,32.5z M18.2,31.8l-0.3,0.3
			l0.3,0.3l0.3-0.3L18.2,31.8z"/>
	</g>
	<g>
		<path class="st0" d="M20.3,28.8h0.3v-0.3h-0.3V28.8z M21.4,29.1l0.2,0.2l0.2-0.2l-0.2-0.2L21.4,29.1z M19.9,27.3l-0.2,0.2l0.2,0.2
			l0.2-0.2L19.9,27.3z M22.6,28.8h0.3v-0.3h-0.3V28.8z M20.6,26.1h-0.3v0.3h0.3V26.1z M22.9,26.1h-0.3v0.3h0.3V26.1z M21.8,25.8
			l-0.2-0.2l-0.2,0.2l0.2,0.2L21.8,25.8z M23.2,27.9L23,27.5l0.2-0.4l-0.3,0.3h-0.5l0.2-0.3L22.2,27l0.4-0.4H23l-0.4-0.2L22.4,26
			v0.5l-0.4,0.4L22,26.5l-0.3,0.2v-0.5l0.3-0.4l-0.4,0.2l-0.4-0.2l0.3,0.3v0.5l-0.3-0.2l0,0.4l-0.4-0.4V26l-0.1,0.4l-0.4,0.2h0.5
			L21,27l-0.4,0.1l0.2,0.3h-0.5L20,27l0.2,0.4L20,27.9l0.3-0.4h0.5l-0.2,0.3l0.4,0.1l-0.4,0.4h-0.5l0.4,0.1l0.1,0.4l0-0.5l0.4-0.4
			l0.1,0.4l0.3-0.2v0.5L21.2,29l0.4-0.2L22,29l-0.3-0.3v-0.5l0.3,0.2l0.1-0.4l0.4,0.4l0,0.5l0.1-0.4l0.4-0.2h-0.5l-0.4-0.4l0.4-0.1
			l-0.2-0.3h0.5L23.2,27.9z M21.2,27.2l0.2,0.2h-0.3L21.2,27.2z M21.2,27.8l-0.1-0.2h0.3L21.2,27.8z M21.5,28l-0.2-0.1l0.2-0.2V28z
			 M21.5,27.3l-0.2-0.2l0.2-0.1V27.3z M22,27.2l0.1,0.2h-0.3L22,27.2z M21.7,27l0.2,0.1l-0.2,0.2V27z M21.7,28v-0.3l0.2,0.2L21.7,28
			z M22,27.8l-0.2-0.2h0.3L22,27.8z M23.3,27.3l-0.2,0.2l0.2,0.2l0.2-0.2L23.3,27.3z"/>
	</g>
	<g>
		<path class="st0" d="M17.5,23.3h0.2v-0.2h-0.2V23.3z M18.3,23.5l0.1,0.1l0.1-0.1l-0.1-0.1L18.3,23.5z M17.2,22.2l-0.1,0.1l0.1,0.1
			l0.1-0.1L17.2,22.2z M19.1,23.3h0.2v-0.2h-0.2V23.3z M17.7,21.4h-0.2v0.2h0.2V21.4z M19.4,21.4h-0.2v0.2h0.2V21.4z M18.6,21.1
			L18.4,21l-0.1,0.1l0.1,0.1L18.6,21.1z M19.5,22.6l-0.1-0.3l0.1-0.3l-0.2,0.2h-0.4l0.1-0.2l-0.2,0l0.3-0.3h0.3l-0.3-0.1L19,21.4
			v0.3L18.7,22l0-0.2l-0.2,0.1v-0.4l0.2-0.2l-0.3,0.1l-0.3-0.1l0.2,0.2v0.4l-0.2-0.1l0,0.2l-0.3-0.3v-0.3l-0.1,0.3l-0.3,0.1h0.3
			l0.3,0.3l-0.3,0.1l0.2,0.2h-0.4l-0.2-0.2l0.1,0.3l-0.1,0.3l0.2-0.2h0.4l-0.2,0.2l0.3,0L17.8,23h-0.3l0.3,0.1l0.1,0.3V23l0.3-0.3
			l0,0.3l0.2-0.2v0.4l-0.2,0.2l0.3-0.1l0.3,0.1l-0.2-0.2v-0.4l0.2,0.1l0-0.3L19,23l0,0.3l0.1-0.3l0.3-0.1h-0.3l-0.3-0.3l0.3-0.1
			l-0.1-0.2h0.4L19.5,22.6z M18.1,22.1l0.2,0.1h-0.2L18.1,22.1z M18.1,22.6l-0.1-0.2h0.2L18.1,22.6z M18.4,22.7l-0.1-0.1l0.1-0.2
			V22.7z M18.4,22.2l-0.1-0.1l0.1-0.1V22.2z M18.7,22.1l0.1,0.1h-0.2L18.7,22.1z M18.5,22l0.2,0.1l-0.2,0.1V22z M18.5,22.7v-0.2
			l0.2,0.1L18.5,22.7z M18.7,22.6l-0.1-0.2h0.2L18.7,22.6z M19.6,22.2l-0.1,0.1l0.1,0.1l0.1-0.1L19.6,22.2z"/>
	</g>
	<g>
		<path class="st0" d="M26,29.1h0.2v-0.2H26V29.1z M26.9,29.5l0.2,0.2l0.2-0.2L27,29.3L26.9,29.5z M25.7,27.9l-0.2,0.2l0.2,0.2
			l0.2-0.2L25.7,27.9z M27.9,29.1h0.2v-0.2h-0.2V29.1z M26.2,27H26v0.2h0.2V27z M28.1,27h-0.2v0.2h0.2V27z M27.2,26.7L27,26.6
			l-0.2,0.2l0.2,0.2L27.2,26.7z M28.3,28.4l-0.1-0.4l0.1-0.3L28,28h-0.4l0.2-0.2l-0.3,0l0.3-0.3h0.4l-0.4-0.1L27.7,27v0.4l-0.3,0.3
			l0-0.3l-0.2,0.2v-0.4l0.3-0.3L27,27l-0.3-0.1l0.3,0.3v0.4l-0.2-0.1l0,0.3l-0.3-0.3V27l-0.1,0.4l-0.4,0.1h0.4l0.3,0.3l-0.3,0.1
			l0.2,0.2H26l-0.3-0.3l0.1,0.3l-0.1,0.3l0.3-0.3h0.4l-0.2,0.2l0.3,0l-0.3,0.3h-0.4l0.4,0.1l0.1,0.3v-0.4l0.3-0.3l0,0.3l0.2-0.2v0.4
			l-0.3,0.3l0.3-0.1l0.3,0.1l-0.3-0.3v-0.4l0.2,0.2l0-0.3l0.3,0.3l0,0.4l0.1-0.3l0.4-0.1h-0.4l-0.3-0.3l0.3-0.1l-0.2-0.2h0.4
			L28.3,28.4z M26.7,27.9l0.2,0.2h-0.2L26.7,27.9z M26.7,28.3l-0.1-0.2h0.2L26.7,28.3z M27,28.5l-0.2-0.1l0.2-0.2V28.5z M27,28
			l-0.2-0.2l0.2-0.1V28z M27.4,27.9l0.1,0.2h-0.2L27.4,27.9z M27.1,27.7l0.2,0.1l-0.2,0.2V27.7z M27.1,28.5v-0.3l0.2,0.2L27.1,28.5z
			 M27.4,28.3l-0.2-0.2h0.3L27.4,28.3z M28.4,27.9l-0.2,0.2l0.2,0.2l0.2-0.2L28.4,27.9z"/>
	</g>
</g>
</svg>
