<?xml version="1.0" encoding="utf-8"?>
<!-- Generator: Adobe Illustrator 24.3.0, SVG Export Plug-In . SVG Version: 6.00 Build 0)  -->
<svg version="1.1" id="Laag_1" xmlns="http://www.w3.org/2000/svg" xmlns:xlink="http://www.w3.org/1999/xlink" x="0px" y="0px"
	 viewBox="0 0 40 40" style="enable-background:new 0 0 40 40;" xml:space="preserve">
<style type="text/css">
	.st0{fill:#FFFFFF;}
</style>
<g>
	<path class="st0" d="M20.1,27.3c-3.6,0-6.5-2.9-6.5-6.5s2.9-6.5,6.5-6.5s6.5,2.9,6.5,6.5S23.7,27.3,20.1,27.3z M20.1,15.5
		c-3,0-5.3,2.4-5.3,5.3c0,3,2.4,5.3,5.3,5.3c3,0,5.3-2.4,5.3-5.3S23.1,15.5,20.1,15.5z"/>
	<g>
		<path class="st0" d="M15.1,15.2c0.2,0.2,0.1,0.5,0,0.6l0,0c-0.2,0.2-0.5,0.1-0.6,0L11,12c-0.2-0.2-0.1-0.5,0-0.6l0,0
			c0.2-0.2,0.5-0.1,0.6,0L15.1,15.2z"/>
	</g>
	<g>
		<path class="st0" d="M20.6,13.1c0,0.2-0.2,0.4-0.5,0.4l0,0c-0.2,0-0.5-0.2-0.5-0.4l0-5.1c0-0.2,0.2-0.4,0.5-0.4l0,0
			c0.2,0,0.5,0.2,0.5,0.4L20.6,13.1z"/>
	</g>
	<g>
		<path class="st0" d="M12.4,19.6c0.2,0,0.4,0.2,0.4,0.5l0,0c0,0.2-0.2,0.4-0.5,0.4l-5.1-0.4c-0.2,0-0.4-0.2-0.4-0.5l0,0
			c0-0.2,0.2-0.4,0.5-0.4L12.4,19.6z"/>
	</g>
	<g>
		<path class="st0" d="M13.2,24.4c0.2-0.1,0.5-0.1,0.6,0.1l0,0c0.1,0.2,0.1,0.5-0.1,0.6l-4.3,2.7C9.2,28,8.9,28,8.8,27.8l0,0
			c-0.1-0.2-0.1-0.5,0.1-0.6L13.2,24.4z"/>
	</g>
	<g>
		<path class="st0" d="M17.1,27.8c0.1-0.2,0.4-0.4,0.6-0.3l0,0c0.2,0.1,0.4,0.4,0.3,0.6l-1.8,4.8c-0.1,0.2-0.4,0.3-0.6,0.3l0,0
			c-0.2-0.1-0.4-0.3-0.3-0.6L17.1,27.8z"/>
	</g>
	<g>
		<path class="st0" d="M26.8,25.4c-0.2-0.1-0.3-0.4-0.2-0.6l0,0c0.1-0.2,0.4-0.3,0.6-0.2l4.5,2.4c0.2,0.1,0.3,0.4,0.2,0.6l0,0
			c-0.1,0.2-0.4,0.3-0.6,0.2L26.8,25.4z"/>
	</g>
	<g>
		<path class="st0" d="M27.8,19.9c-0.2,0-0.5-0.1-0.5-0.4l0,0c0-0.2,0.1-0.5,0.4-0.5l5-0.6c0.2,0,0.5,0.1,0.5,0.4l0,0
			c0,0.2-0.2,0.5-0.4,0.5L27.8,19.9z"/>
	</g>
	<g>
		<path class="st0" d="M24.5,32.5c0.1,0.2,0,0.5-0.3,0.6l0,0c-0.2,0.1-0.5,0-0.6-0.3L22,28.1c-0.1-0.2,0-0.5,0.3-0.6l0,0
			c0.2-0.1,0.5,0,0.6,0.3L24.5,32.5z"/>
	</g>
	<g>
		<path class="st0" d="M25.3,15.3c-0.1,0.2-0.4,0.2-0.6,0.1l0,0c-0.2-0.1-0.2-0.4-0.1-0.6l3.1-4c0.1-0.2,0.4-0.2,0.6-0.1l0,0
			c0.2,0.1,0.2,0.4,0.1,0.6L25.3,15.3z"/>
	</g>
</g>
</svg>
