<?xml version="1.0" encoding="utf-8"?>
<!-- Generator: Adobe Illustrator 24.3.0, SVG Export Plug-In . SVG Version: 6.00 Build 0)  -->
<svg version="1.1" id="Laag_1" xmlns="http://www.w3.org/2000/svg" xmlns:xlink="http://www.w3.org/1999/xlink" x="0px" y="0px"
	 viewBox="0 0 40 40" style="enable-background:new 0 0 40 40;" xml:space="preserve">
<style type="text/css">
	.st0{fill:#FFFFFF;}
</style>
<path class="st0" d="M29.1,1.6h-18c-5.1,0-9.3,4.1-9.3,9.3V29c0,5.1,4.1,9.3,9.3,9.3h18.1c5.1,0,9.3-4.1,9.3-9.3V11
	C38.5,5.7,34.4,1.6,29.1,1.6z M30.2,13.9c0,0.1,0,0.2-0.1,0.3c-0.5,0.6-0.9,1.2-1.6,1.6c-0.1,0.1-0.2,0.1-0.2,0.3
	c0,3.3-0.8,6.5-3.3,8.8c-3,3-7.5,3.8-11.5,2.7c-0.8-0.2-1.5-0.5-2.3-0.9c-0.2-0.1-0.5-0.3-0.8-0.4c-0.1,0-0.1-0.1-0.1-0.1
	s0.1,0,0.3,0c1.1,0.1,2.3-0.1,3.4-0.4c0.6-0.2,1.8-0.6,2.3-1.2l0,0c-0.1,0-0.3,0-0.4-0.1c-1.1-0.2-2.5-0.8-3.3-2.6
	c0-0.1,0-0.2,0.1-0.1c0.9,0.1,1.2,0,1.5,0c-0.2,0-0.4-0.1-0.5-0.2c-1.4-0.5-2.3-1.8-2.5-3.4c0-0.2,0-0.3,0-0.5
	c0-0.1,0.1-0.1,0.1-0.1c0.8,0.4,1.5,0.4,1.5,0.4c-0.2-0.1-0.3-0.3-0.5-0.4c-1.2-1.1-1.6-3.5-0.8-4.9c0.1-0.1,0.1-0.1,0.2,0
	c2.3,2.5,4.9,3.7,8.2,4.1c0.1,0,0.1,0,0.1-0.1c-0.1-0.6-0.1-1.1,0-1.7c0.1-0.6,0.4-1.1,0.8-1.6c0.4-0.4,0.8-0.8,1.3-1.1
	s1.1-0.4,1.6-0.5c0.6,0,1.2,0.1,1.7,0.3c0.4,0.2,0.8,0.4,1.1,0.8c0.1,0.1,0.1,0.1,0.2,0.2c0,0,0.1,0.1,0.2,0
	c0.8-0.2,1.6-0.5,2.3-0.9h0.1v0.1c-0.1,0.4-0.4,0.8-0.8,1.2c-0.2,0.2-0.8,0.8-1,0.9C28.8,14.3,29.6,14.2,30.2,13.9
	C30.2,13.8,30.2,13.8,30.2,13.9L30.2,13.9z"/>
</svg>
